{
.appVersion = "1075";
DisplayStrings = (
ABCDEFGHIJKLMNOPQRSTUVWXYZ
);
date = "2017-11-14 14:59:33 +0000";
familyName = "playboy-fin";
fontMaster = (
{
ascender = 800;
capHeight = 700;
descender = -200;
id = "8163A9A7-FEB5-4584-B00B-7D9977804228";
visible = 1;
xHeight = 500;
}
);
glyphs = (
{
glyphname = A;
lastChange = "2017-11-14 15:35:49 +0000";
layers = (
{
guideLines = (
{
angle = 270;
position = "{80, 33}";
},
{
angle = 270;
position = "{159, 33}";
}
);
layerId = "8163A9A7-FEB5-4584-B00B-7D9977804228";
paths = (
{
closed = 1;
nodes = (
"295 146 OFFCURVE",
"333 0 OFFCURVE",
"333 0 CURVE SMOOTH",
"405 0 LINE",
"405 0 OFFCURVE",
"297 418 OFFCURVE",
"257 476 CURVE SMOOTH",
"223 526 OFFCURVE",
"197 503 OFFCURVE",
"174 549 CURVE SMOOTH",
"161 575 OFFCURVE",
"127 641 OFFCURVE",
"123 649 CURVE SMOOTH",
"112 670 OFFCURVE",
"112 684 OFFCURVE",
"112 700 CURVE",
"40 700 LINE",
"40 700 OFFCURVE",
"40 670 OFFCURVE",
"51 649 CURVE SMOOTH",
"55 641 OFFCURVE",
"89 575 OFFCURVE",
"102 549 CURVE SMOOTH",
"126 503 OFFCURVE",
"151 526 OFFCURVE",
"185 476 CURVE SMOOTH",
"194 463 OFFCURVE",
"207 431 OFFCURVE",
"221 389 CURVE",
"221 389 LINE",
"80 0 LINE",
"159 0 LINE",
"256 277 LINE"
);
}
);
width = 445;
}
);
unicode = 0041;
},
{
glyphname = B;
lastChange = "2017-12-21 18:37:09 +0000";
layers = (
{
layerId = "8163A9A7-FEB5-4584-B00B-7D9977804228";
paths = (
{
closed = 1;
nodes = (
"143 460 OFFCURVE",
"158 463 OFFCURVE",
"190 480 CURVE SMOOTH",
"223 498 OFFCURVE",
"327 563 OFFCURVE",
"337 569 CURVE SMOOTH",
"440 631 OFFCURVE",
"393 513 OFFCURVE",
"342 444 CURVE",
"330 421 OFFCURVE",
"307 406 OFFCURVE",
"312 384 CURVE SMOOTH",
"324 330 OFFCURVE",
"463 321 OFFCURVE",
"476 268 CURVE SMOOTH",
"484 236 OFFCURVE",
"460 220 OFFCURVE",
"425 189 CURVE SMOOTH",
"278 59 OFFCURVE",
"154 105 OFFCURVE",
"40 84 CURVE",
"54 -2 LINE",
"169 20 OFFCURVE",
"302 -32 OFFCURVE",
"440 103 CURVE SMOOTH",
"568 228 OFFCURVE",
"621 280 OFFCURVE",
"495 312 CURVE SMOOTH",
"429 329 OFFCURVE",
"404 373 OFFCURVE",
"435 436 CURVE SMOOTH",
"458 482 OFFCURVE",
"560 669 OFFCURVE",
"455 703 CURVE SMOOTH",
"421 714 OFFCURVE",
"421 719 OFFCURVE",
"375 696 CURVE SMOOTH",
"345 681 OFFCURVE",
"89 516 OFFCURVE",
"81 513 CURVE SMOOTH",
"40 498 OFFCURVE",
"62 430 OFFCURVE",
"97 403 CURVE SMOOTH",
"130 377 OFFCURVE",
"201 336 OFFCURVE",
"226 299 CURVE",
"278 231 LINE",
"354 266 LINE",
"303 335 LINE",
"277 371 OFFCURVE",
"207 413 OFFCURVE",
"174 439 CURVE"
);
}
);
width = 602;
},
{
associatedMasterId = "8163A9A7-FEB5-4584-B00B-7D9977804228";
backgroundImage = {
crop = "{{0, 0}, {536, 738}}";
imagePath = "../Desktop/G _ B.png";
locked = "1";
transform = "{3.1, 0, 0, 3.1, -275, -508}";
};
layerId = "643D18EF-F2FF-4806-9376-B0C3F55AB0EC";
name = "Nov 25 17, 17:00";
paths = (
{
closed = 1;
nodes = (
"-612 48 LINE",
"-613 134 LINE",
"-613 203 OFFCURVE",
"-597 241 OFFCURVE",
"-597 283 CURVE SMOOTH",
"-597 309 OFFCURVE",
"-642 359 OFFCURVE",
"-661 388 CURVE SMOOTH",
"-756 534 OFFCURVE",
"-692 643 OFFCURVE",
"-692 748 CURVE",
"-613 748 LINE",
"-613 643 OFFCURVE",
"-677 534 OFFCURVE",
"-582 388 CURVE SMOOTH",
"-563 359 OFFCURVE",
"-518 309 OFFCURVE",
"-518 283 CURVE SMOOTH",
"-518 241 OFFCURVE",
"-534 203 OFFCURVE",
"-534 134 CURVE",
"-534 127 OFFCURVE",
"-533 117 OFFCURVE",
"-524 122 CURVE SMOOTH",
"-515 127 OFFCURVE",
"-367 154 OFFCURVE",
"-334 152 CURVE",
"-334 76 LINE",
"-372 76 OFFCURVE",
"-484 48 OFFCURVE",
"-534 48 CURVE"
);
},
{
closed = 0;
nodes = (
"266 711 LINE",
"275 705 OFFCURVE",
"360 529 OFFCURVE",
"363 505 CURVE SMOOTH",
"366 481 OFFCURVE",
"357 459 OFFCURVE",
"372 444 CURVE SMOOTH",
"387 429 OFFCURVE",
"453 438 OFFCURVE",
"472 444 CURVE SMOOTH",
"538 465 OFFCURVE",
"540 456 OFFCURVE",
"553 444 CURVE SMOOTH",
"575 424 OFFCURVE",
"553 326 OFFCURVE",
"540 259 CURVE SMOOTH",
"507 88 OFFCURVE",
"382 57 OFFCURVE",
"308 -18 CURVE",
"252 38 LINE",
"326 112 OFFCURVE",
"443 143 OFFCURVE",
"484 315 CURVE SMOOTH",
"494 357 OFFCURVE",
"502 381 OFFCURVE",
"480 401 CURVE SMOOTH",
"467 413 OFFCURVE",
"465 422 OFFCURVE",
"399 401 CURVE SMOOTH",
"380 395 OFFCURVE",
"314 386 OFFCURVE",
"299 401 CURVE SMOOTH",
"284 416 OFFCURVE",
"293 438 OFFCURVE",
"290 462 CURVE SMOOTH",
"287 486 OFFCURVE",
"202 662 OFFCURVE",
"193 668 CURVE SMOOTH"
);
}
);
visible = 1;
width = 600;
}
);
unicode = 0042;
},
{
glyphname = C;
lastChange = "2017-12-21 18:37:59 +0000";
layers = (
{
layerId = "8163A9A7-FEB5-4584-B00B-7D9977804228";
paths = (
{
closed = 1;
nodes = (
"398 655 OFFCURVE",
"429 712 OFFCURVE",
"282 712 CURVE SMOOTH",
"173 712 OFFCURVE",
"68 607 OFFCURVE",
"61 487 CURVE",
"61 476 OFFCURVE",
"61 465 OFFCURVE",
"60 455 CURVE SMOOTH",
"49 336 OFFCURVE",
"-7 212 OFFCURVE",
"98 49 CURVE",
"165 -42 OFFCURVE",
"426 0 OFFCURVE",
"501 139 CURVE",
"501 139 OFFCURVE",
"513 170 OFFCURVE",
"463 212 CURVE",
"414 94 OFFCURVE",
"204 72 OFFCURVE",
"156 137 CURVE",
"81 253 OFFCURVE",
"121 341 OFFCURVE",
"129 425 CURVE SMOOTH",
"130 432 OFFCURVE",
"130 440 OFFCURVE",
"130 448 CURVE",
"135 533 OFFCURVE",
"209 608 OFFCURVE",
"287 608 CURVE SMOOTH",
"391 608 OFFCURVE",
"406 544 OFFCURVE",
"483 520 CURVE",
"483 624 LINE"
);
}
);
width = 537;
}
);
unicode = 0043;
},
{
glyphname = D;
lastChange = "2017-12-21 18:37:49 +0000";
layers = (
{
layerId = "8163A9A7-FEB5-4584-B00B-7D9977804228";
paths = (
{
closed = 1;
nodes = (
"150 0 LINE",
"150 102 OFFCURVE",
"175 148 OFFCURVE",
"142 205 CURVE SMOOTH",
"109 262 OFFCURVE",
"115 304 OFFCURVE",
"139 402 CURVE SMOOTH",
"163 500 OFFCURVE",
"203 614 OFFCURVE",
"203 700 CURVE",
"124 700 LINE",
"124 614 OFFCURVE",
"84 500 OFFCURVE",
"60 402 CURVE SMOOTH",
"36 304 OFFCURVE",
"30 262 OFFCURVE",
"63 205 CURVE SMOOTH",
"96 148 OFFCURVE",
"76 136 OFFCURVE",
"60 0 CURVE"
);
},
{
closed = 1;
nodes = (
"163 1 OFFCURVE",
"271 -13 OFFCURVE",
"318 89 CURVE",
"330 113 OFFCURVE",
"372 223 OFFCURVE",
"386 273 CURVE",
"400 315 OFFCURVE",
"425 441 OFFCURVE",
"425 469 CURVE SMOOTH",
"425 492 OFFCURVE",
"425 517 OFFCURVE",
"376 562 CURVE SMOOTH",
"348 588 OFFCURVE",
"286 665 OFFCURVE",
"250 700 CURVE",
"124 700 LINE",
"160 665 OFFCURVE",
"267 550 OFFCURVE",
"295 524 CURVE SMOOTH",
"344 479 OFFCURVE",
"344 454 OFFCURVE",
"344 431 CURVE SMOOTH",
"344 403 OFFCURVE",
"306 256 OFFCURVE",
"292 214 CURVE",
"261 136 LINE",
"218 54 OFFCURVE",
"135 59 OFFCURVE",
"124 59 CURVE",
"124 0 LINE"
);
}
);
width = 460;
},
{
associatedMasterId = "8163A9A7-FEB5-4584-B00B-7D9977804228";
backgroundImage = {
crop = "{{0, 0}, {493, 698}}";
imagePath = ../Desktop/D.png;
locked = "1";
transform = "{1.2, 0, 0, 1.2, -273, -5}";
};
layerId = "6D5624C4-3CD3-462B-9201-5EA32E79EE13";
name = "Nov 25 17, 10:43";
paths = (
{
closed = 1;
nodes = (
"150 0 LINE",
"150 102 OFFCURVE",
"175 148 OFFCURVE",
"142 205 CURVE SMOOTH",
"109 262 OFFCURVE",
"115 304 OFFCURVE",
"139 402 CURVE SMOOTH",
"163 500 OFFCURVE",
"203 614 OFFCURVE",
"203 700 CURVE",
"124 700 LINE",
"124 614 OFFCURVE",
"84 500 OFFCURVE",
"60 402 CURVE SMOOTH",
"36 304 OFFCURVE",
"30 262 OFFCURVE",
"63 205 CURVE SMOOTH",
"96 148 OFFCURVE",
"76 136 OFFCURVE",
"60 0 CURVE"
);
},
{
closed = 1;
nodes = (
"163 1 OFFCURVE",
"271 -13 OFFCURVE",
"318 89 CURVE",
"330 113 OFFCURVE",
"372 223 OFFCURVE",
"386 273 CURVE",
"400 315 OFFCURVE",
"425 441 OFFCURVE",
"425 469 CURVE SMOOTH",
"425 492 OFFCURVE",
"425 517 OFFCURVE",
"376 562 CURVE SMOOTH",
"348 588 OFFCURVE",
"286 665 OFFCURVE",
"250 700 CURVE",
"124 700 LINE",
"160 665 OFFCURVE",
"267 550 OFFCURVE",
"295 524 CURVE SMOOTH",
"344 479 OFFCURVE",
"344 454 OFFCURVE",
"344 431 CURVE SMOOTH",
"344 403 OFFCURVE",
"306 256 OFFCURVE",
"292 214 CURVE",
"261 136 LINE",
"218 54 OFFCURVE",
"135 59 OFFCURVE",
"124 59 CURVE",
"124 0 LINE"
);
}
);
width = 533;
}
);
unicode = 0044;
},
{
glyphname = E;
lastChange = "2017-12-21 18:33:53 +0000";
layers = (
{
layerId = "8163A9A7-FEB5-4584-B00B-7D9977804228";
paths = (
{
closed = 1;
nodes = (
"444 215 LINE",
"412 191 OFFCURVE",
"388 157 OFFCURVE",
"313 83 CURVE",
"255 34 OFFCURVE",
"191 83 OFFCURVE",
"162 122 CURVE",
"87 238 OFFCURVE",
"117 342 OFFCURVE",
"129 426 CURVE SMOOTH",
"130 433 OFFCURVE",
"130 441 OFFCURVE",
"130 449 CURVE",
"135 534 OFFCURVE",
"209 621 OFFCURVE",
"287 621 CURVE",
"391 621 OFFCURVE",
"390 572 OFFCURVE",
"467 548 CURVE",
"519 608 LINE",
"410 641 OFFCURVE",
"429 713 OFFCURVE",
"282 713 CURVE SMOOTH",
"173 713 OFFCURVE",
"68 608 OFFCURVE",
"61 488 CURVE",
"61 477 OFFCURVE",
"61 466 OFFCURVE",
"60 456 CURVE SMOOTH",
"48 337 OFFCURVE",
"-7 213 OFFCURVE",
"98 50 CURVE",
"148 -18 OFFCURVE",
"287 -38 OFFCURVE",
"351 5 CURVE",
"410 42 OFFCURVE",
"491 144 OFFCURVE",
"512 167 CURVE"
);
},
{
closed = 1;
nodes = (
"436 480 LINE",
"348 462 LINE",
"335 460 OFFCURVE",
"323 469 OFFCURVE",
"309 479 CURVE SMOOTH",
"295 489 OFFCURVE",
"201 561 OFFCURVE",
"183 584 CURVE",
"135 534 LINE",
"287 420 LINE",
"304 407 OFFCURVE",
"315 396 OFFCURVE",
"339 400 CURVE",
"444 426 LINE"
);
}
);
width = 554;
}
);
unicode = 0045;
},
{
glyphname = F;
lastChange = "2017-12-21 18:36:13 +0000";
layers = (
{
layerId = "8163A9A7-FEB5-4584-B00B-7D9977804228";
paths = (
{
closed = 1;
nodes = (
"262 272 OFFCURVE",
"200 163 OFFCURVE",
"192 149 CURVE",
"207 111 OFFCURVE",
"213 48 OFFCURVE",
"212 0 CURVE",
"133 0 LINE",
"135 95 OFFCURVE",
"101 189 OFFCURVE",
"81 227 CURVE SMOOTH",
"60 267 OFFCURVE",
"15 314 OFFCURVE",
"57 378 CURVE SMOOTH",
"119 473 OFFCURVE",
"199 643 OFFCURVE",
"196 700 CURVE",
"275 700 LINE",
"278 647 OFFCURVE",
"194 469 OFFCURVE",
"134 378 CURVE SMOOTH",
"92 314 OFFCURVE",
"137 267 OFFCURVE",
"158 227 CURVE",
"161 222 LINE",
"171 239 OFFCURVE",
"266 369 OFFCURVE",
"311 387 CURVE",
"311 308 LINE"
);
}
);
width = 351;
}
);
unicode = 0046;
},
{
glyphname = G;
lastChange = "2017-12-21 18:38:04 +0000";
layers = (
{
layerId = "8163A9A7-FEB5-4584-B00B-7D9977804228";
paths = (
{
closed = 1;
nodes = (
"194 160 OFFCURVE",
"183 255 OFFCURVE",
"150 333 CURVE SMOOTH",
"147 340 OFFCURVE",
"143 347 OFFCURVE",
"139 354 CURVE",
"101 430 OFFCURVE",
"127 532 OFFCURVE",
"195 571 CURVE",
"278 624 OFFCURVE",
"330 601 OFFCURVE",
"362 570 CURVE",
"410 637 LINE",
"410 637 OFFCURVE",
"404 709 OFFCURVE",
"257 709 CURVE SMOOTH",
"148 709 OFFCURVE",
"43 604 OFFCURVE",
"36 484 CURVE SMOOTH",
"33 441 OFFCURVE",
"40 392 OFFCURVE",
"60 353 CURVE",
"65 343 OFFCURVE",
"71 334 OFFCURVE",
"75 325 CURVE SMOOTH",
"124 216 OFFCURVE",
"91 89 OFFCURVE",
"264 0 CURVE",
"337 -30 OFFCURVE",
"396 36 OFFCURVE",
"435 79 CURVE",
"451 98 OFFCURVE",
"443 118 OFFCURVE",
"441 126 CURVE",
"435 145 OFFCURVE",
"437 160 OFFCURVE",
"451 174 CURVE SMOOTH",
"465 188 OFFCURVE",
"530 194 OFFCURVE",
"557 196 CURVE",
"550 276 LINE",
"453 258 LINE",
"429 252 OFFCURVE",
"415 242 OFFCURVE",
"407 223 CURVE SMOOTH",
"398 203 OFFCURVE",
"405 185 OFFCURVE",
"397 157 CURVE",
"384 113 OFFCURVE",
"357 79 OFFCURVE",
"317 97 CURVE"
);
}
);
width = 592;
}
);
unicode = 0047;
},
{
glyphname = H;
lastChange = "2017-12-21 18:36:26 +0000";
layers = (
{
guideLines = (
{
angle = 270;
position = "{251, 360}";
},
{
angle = 236.5135;
position = "{-822, 611}";
}
);
layerId = "8163A9A7-FEB5-4584-B00B-7D9977804228";
paths = (
{
closed = 1;
nodes = (
"301 63 LINE",
"320 67 LINE",
"320 110 OFFCURVE",
"459 222 OFFCURVE",
"497 228 CURVE",
"497 307 LINE",
"459 301 OFFCURVE",
"319 188 OFFCURVE",
"310 177 CURVE SMOOTH",
"301 166 OFFCURVE",
"295 166 OFFCURVE",
"284 177 CURVE SMOOTH",
"275 186 OFFCURVE",
"143 301 OFFCURVE",
"105 307 CURVE",
"105 228 LINE",
"143 222 OFFCURVE",
"282 110 OFFCURVE",
"282 67 CURVE"
);
},
{
closed = 1;
nodes = (
"119 0 LINE",
"119 104 LINE SMOOTH",
"119 359 OFFCURVE",
"161 500 OFFCURVE",
"161 643 CURVE SMOOTH",
"161 700 LINE",
"82 700 LINE",
"82 643 LINE SMOOTH",
"82 500 OFFCURVE",
"40 359 OFFCURVE",
"40 104 CURVE SMOOTH",
"40 0 LINE"
);
},
{
closed = 1;
nodes = (
"546 0 LINE",
"546 58 LINE SMOOTH",
"546 146 OFFCURVE",
"575 178 OFFCURVE",
"565 258 CURVE SMOOTH",
"545 416 OFFCURVE",
"546 672 OFFCURVE",
"546 700 CURVE",
"467 700 LINE",
"467 672 OFFCURVE",
"466 416 OFFCURVE",
"486 258 CURVE SMOOTH",
"496 178 OFFCURVE",
"467 146 OFFCURVE",
"467 58 CURVE SMOOTH",
"467 0 LINE"
);
}
);
width = 607;
},
{
associatedMasterId = "8163A9A7-FEB5-4584-B00B-7D9977804228";
guideLines = (
{
angle = 270;
position = "{246, 360}";
},
{
angle = 236.5135;
position = "{-4, 223}";
}
);
layerId = "4DA8C818-AE0E-4801-A298-74D53BB1A0B5";
name = "Nov 25 17, 11:00";
paths = (
{
closed = 1;
nodes = (
"503 336 OFFCURVE",
"547 306 OFFCURVE",
"525 264 CURVE",
"403 0 LINE",
"323 0 LINE",
"408 177 LINE",
"428 215 OFFCURVE",
"393 200 OFFCURVE",
"283 200 CURVE",
"220 200 OFFCURVE",
"141 215 OFFCURVE",
"161 177 CURVE",
"246 0 LINE",
"167 0 LINE",
"46 268 LINE",
"24 310 OFFCURVE",
"68 340 OFFCURVE",
"122 304 CURVE",
"215 242 OFFCURVE",
"243 268 OFFCURVE",
"243 461 CURVE SMOOTH",
"243 511 OFFCURVE",
"243 700 OFFCURVE",
"243 700 CURVE",
"322 700 LINE",
"322 700 OFFCURVE",
"322 663 OFFCURVE",
"322 461 CURVE SMOOTH",
"322 268 OFFCURVE",
"359 242 OFFCURVE",
"449 300 CURVE"
);
}
);
width = 571;
},
{
associatedMasterId = "8163A9A7-FEB5-4584-B00B-7D9977804228";
guideLines = (
{
angle = 270;
position = "{269, 360}";
},
{
angle = 236.5135;
position = "{-804, 611}";
}
);
layerId = "27DCBC4B-CDD7-4F46-B955-2904CC8BF57C";
name = "Nov 25 17, 12:28";
paths = (
{
closed = 1;
nodes = (
"296 63 LINE",
"315 67 LINE",
"315 110 OFFCURVE",
"454 222 OFFCURVE",
"492 228 CURVE",
"492 307 LINE",
"454 301 OFFCURVE",
"314 188 OFFCURVE",
"305 177 CURVE SMOOTH",
"296 166 OFFCURVE",
"290 166 OFFCURVE",
"279 177 CURVE SMOOTH",
"270 186 OFFCURVE",
"138 301 OFFCURVE",
"100 307 CURVE",
"100 228 LINE",
"138 222 OFFCURVE",
"277 110 OFFCURVE",
"277 67 CURVE"
);
},
{
closed = 1;
nodes = (
"114 0 LINE",
"114 104 LINE SMOOTH",
"114 359 OFFCURVE",
"156 500 OFFCURVE",
"156 643 CURVE SMOOTH",
"156 700 LINE",
"77 700 LINE",
"77 643 LINE SMOOTH",
"77 500 OFFCURVE",
"35 359 OFFCURVE",
"35 104 CURVE SMOOTH",
"35 0 LINE"
);
},
{
closed = 1;
nodes = (
"541 0 LINE",
"541 58 LINE SMOOTH",
"541 146 OFFCURVE",
"570 178 OFFCURVE",
"560 258 CURVE SMOOTH",
"540 416 OFFCURVE",
"541 672 OFFCURVE",
"541 700 CURVE",
"462 700 LINE",
"462 672 OFFCURVE",
"461 416 OFFCURVE",
"481 258 CURVE SMOOTH",
"491 178 OFFCURVE",
"462 146 OFFCURVE",
"462 58 CURVE SMOOTH",
"462 0 LINE"
);
}
);
width = 597;
}
);
unicode = 0048;
},
{
glyphname = I;
lastChange = "2017-11-14 15:57:34 +0000";
layers = (
{
layerId = "8163A9A7-FEB5-4584-B00B-7D9977804228";
paths = (
{
closed = 1;
nodes = (
"221 660 OFFCURVE",
"231 511 OFFCURVE",
"204 461 CURVE SMOOTH",
"187 430 OFFCURVE",
"150 402 OFFCURVE",
"133 380 CURVE SMOOTH",
"97 334 OFFCURVE",
"139 304 OFFCURVE",
"177 261 CURVE SMOOTH",
"215 218 OFFCURVE",
"217 180 OFFCURVE",
"219 104 CURVE",
"219 0 LINE",
"140 0 LINE",
"140 104 LINE",
"138 180 OFFCURVE",
"136 218 OFFCURVE",
"98 261 CURVE SMOOTH",
"60 304 OFFCURVE",
"18 334 OFFCURVE",
"54 380 CURVE SMOOTH",
"71 402 OFFCURVE",
"108 430 OFFCURVE",
"125 461 CURVE SMOOTH",
"152 511 OFFCURVE",
"142 660 OFFCURVE",
"143 700 CURVE",
"222 700 LINE"
);
}
);
width = 263;
}
);
unicode = 0049;
},
{
glyphname = J;
lastChange = "2017-12-21 18:36:36 +0000";
layers = (
{
layerId = "8163A9A7-FEB5-4584-B00B-7D9977804228";
paths = (
{
closed = 1;
nodes = (
"40 41 LINE",
"56 22 OFFCURVE",
"109 -9 OFFCURVE",
"186 -24 CURVE SMOOTH",
"263 -39 OFFCURVE",
"312 -24 OFFCURVE",
"349 5 CURVE SMOOTH",
"372 23 OFFCURVE",
"424 79 OFFCURVE",
"473 171 CURVE SMOOTH",
"502 226 OFFCURVE",
"541 226 OFFCURVE",
"582 285 CURVE SMOOTH",
"621 341 OFFCURVE",
"634 502 OFFCURVE",
"644 530 CURVE SMOOTH",
"654 558 OFFCURVE",
"687 671 OFFCURVE",
"699 700 CURVE",
"611 700 LINE",
"600 672 OFFCURVE",
"568 564 OFFCURVE",
"559 538 CURVE SMOOTH",
"550 511 OFFCURVE",
"537 358 OFFCURVE",
"500 304 CURVE SMOOTH",
"461 247 OFFCURVE",
"420 241 OFFCURVE",
"396 196 CURVE SMOOTH",
"349 109 OFFCURVE",
"331 91 OFFCURVE",
"310 74 CURVE SMOOTH",
"274 47 OFFCURVE",
"211 0 OFFCURVE",
"91 101 CURVE"
);
}
);
width = 734;
}
);
unicode = 004A;
},
{
glyphname = K;
lastChange = "2017-12-21 18:38:14 +0000";
layers = (
{
layerId = "8163A9A7-FEB5-4584-B00B-7D9977804228";
paths = (
{
closed = 1;
nodes = (
"110 351 LINE",
"127 351 OFFCURVE",
"189 301 OFFCURVE",
"189 169 CURVE",
"188 57 LINE",
"188 0 LINE",
"252 0 LINE",
"252 57 LINE",
"253 169 LINE",
"253 279 OFFCURVE",
"216 372 OFFCURVE",
"141 407 CURVE"
);
},
{
closed = 1;
nodes = (
"119 0 LINE",
"119 104 LINE",
"118 271 OFFCURVE",
"148 321 OFFCURVE",
"170 425 CURVE SMOOTH",
"192 529 OFFCURVE",
"188 549 OFFCURVE",
"188 596 CURVE SMOOTH",
"188 700 LINE",
"109 700 LINE",
"109 596 LINE SMOOTH",
"109 549 OFFCURVE",
"113 529 OFFCURVE",
"91 425 CURVE SMOOTH",
"69 321 OFFCURVE",
"39 271 OFFCURVE",
"40 104 CURVE",
"40 0 LINE"
);
},
{
closed = 1;
nodes = (
"229 454 OFFCURVE",
"309 514 OFFCURVE",
"301 529 CURVE SMOOTH",
"275 577 LINE",
"265 564 OFFCURVE",
"200 501 OFFCURVE",
"141 486 CURVE",
"169 438 LINE"
);
}
);
width = 347;
},
{
associatedMasterId = "8163A9A7-FEB5-4584-B00B-7D9977804228";
backgroundImage = {
crop = "{{0, 0}, {153, 376}}";
imagePath = ../Desktop/K.png;
locked = "1";
transform = "{2.2, 0, 0, 2.2, 143, 0}";
};
layerId = "CFAF61F0-9872-4C4A-B878-0308FF778CEA";
name = "Nov 25 17, 11:43";
paths = (
{
closed = 1;
nodes = (
"258 351 LINE",
"275 351 OFFCURVE",
"337 301 OFFCURVE",
"337 169 CURVE",
"336 57 LINE",
"336 0 LINE",
"400 0 LINE",
"400 57 LINE",
"401 169 LINE",
"401 279 OFFCURVE",
"364 372 OFFCURVE",
"289 407 CURVE"
);
},
{
closed = 1;
nodes = (
"267 0 LINE",
"267 104 LINE",
"266 271 OFFCURVE",
"296 321 OFFCURVE",
"318 425 CURVE SMOOTH",
"340 529 OFFCURVE",
"336 549 OFFCURVE",
"336 596 CURVE SMOOTH",
"336 700 LINE",
"257 700 LINE",
"257 596 LINE SMOOTH",
"257 549 OFFCURVE",
"261 529 OFFCURVE",
"239 425 CURVE SMOOTH",
"217 321 OFFCURVE",
"187 271 OFFCURVE",
"188 104 CURVE",
"188 0 LINE"
);
},
{
closed = 1;
nodes = (
"377 454 OFFCURVE",
"457 514 OFFCURVE",
"449 529 CURVE SMOOTH",
"423 577 LINE",
"413 564 OFFCURVE",
"348 501 OFFCURVE",
"289 486 CURVE",
"317 438 LINE"
);
}
);
width = 600;
}
);
unicode = 004B;
},
{
glyphname = L;
lastChange = "2017-11-14 17:03:21 +0000";
layers = (
{
layerId = "8163A9A7-FEB5-4584-B00B-7D9977804228";
paths = (
{
closed = 1;
nodes = (
"141 0 LINE",
"140 86 LINE",
"140 155 OFFCURVE",
"156 193 OFFCURVE",
"156 235 CURVE SMOOTH",
"156 261 OFFCURVE",
"111 311 OFFCURVE",
"92 340 CURVE SMOOTH",
"-3 486 OFFCURVE",
"61 595 OFFCURVE",
"61 700 CURVE",
"140 700 LINE",
"140 595 OFFCURVE",
"76 486 OFFCURVE",
"171 340 CURVE SMOOTH",
"190 311 OFFCURVE",
"235 261 OFFCURVE",
"235 235 CURVE SMOOTH",
"235 193 OFFCURVE",
"219 155 OFFCURVE",
"219 86 CURVE",
"219 79 OFFCURVE",
"220 69 OFFCURVE",
"229 74 CURVE SMOOTH",
"238 79 OFFCURVE",
"386 106 OFFCURVE",
"419 104 CURVE",
"419 28 LINE",
"381 28 OFFCURVE",
"269 0 OFFCURVE",
"219 0 CURVE"
);
}
);
width = 454;
}
);
unicode = 004C;
},
{
glyphname = M;
lastChange = "2017-12-21 18:38:24 +0000";
layers = (
{
layerId = "8163A9A7-FEB5-4584-B00B-7D9977804228";
paths = (
{
closed = 1;
nodes = (
"85 700 LINE",
"56 618 OFFCURVE",
"44 604 OFFCURVE",
"40 485 CURVE SMOOTH",
"38 420 OFFCURVE",
"46 384 OFFCURVE",
"56 355 CURVE SMOOTH",
"66 326 OFFCURVE",
"52 261 OFFCURVE",
"49 232 CURVE SMOOTH",
"46 203 OFFCURVE",
"55 160 OFFCURVE",
"64 121 CURVE SMOOTH",
"93 0 LINE",
"172 0 LINE",
"144 121 LINE SMOOTH",
"135 160 OFFCURVE",
"126 203 OFFCURVE",
"129 232 CURVE SMOOTH",
"132 261 OFFCURVE",
"146 326 OFFCURVE",
"136 355 CURVE SMOOTH",
"126 384 OFFCURVE",
"118 420 OFFCURVE",
"120 485 CURVE SMOOTH",
"124 604 OFFCURVE",
"135 618 OFFCURVE",
"164 700 CURVE"
);
},
{
closed = 1;
nodes = (
"212 635 LINE SMOOTH",
"188 667 OFFCURVE",
"178 682 OFFCURVE",
"164 700 CURVE",
"139 639 LINE",
"153 621 OFFCURVE",
"156 617 OFFCURVE",
"180 585 CURVE SMOOTH",
"222 529 LINE",
"236 552 OFFCURVE",
"237 549 OFFCURVE",
"254 579 CURVE"
);
},
{
closed = 1;
nodes = (
"308 597 OFFCURVE",
"268 573 OFFCURVE",
"236 505 CURVE",
"187 372 LINE",
"226 343 LINE",
"254 429 LINE",
"265 466 OFFCURVE",
"282 531 OFFCURVE",
"305 514 CURVE",
"282 399 LINE SMOOTH",
"273 355 OFFCURVE",
"288 254 OFFCURVE",
"306 194 CURVE SMOOTH",
"324 134 OFFCURVE",
"346 52 OFFCURVE",
"359 0 CURVE",
"434 0 LINE",
"421 52 OFFCURVE",
"399 134 OFFCURVE",
"381 194 CURVE SMOOTH",
"363 254 OFFCURVE",
"348 355 OFFCURVE",
"357 399 CURVE SMOOTH",
"394 582 OFFCURVE",
"350 489 OFFCURVE",
"409 610 CURVE",
"330 610 LINE",
"330 610 LINE"
);
}
);
width = 474;
}
);
unicode = 004D;
},
{
glyphname = N;
lastChange = "2017-12-21 18:38:42 +0000";
layers = (
{
layerId = "8163A9A7-FEB5-4584-B00B-7D9977804228";
paths = (
{
closed = 1;
nodes = (
"408 411 OFFCURVE",
"355 362 OFFCURVE",
"345 314 CURVE SMOOTH",
"335 266 OFFCURVE",
"353 210 OFFCURVE",
"379 160 CURVE SMOOTH",
"397 125 OFFCURVE",
"404 94 OFFCURVE",
"404 0 CURVE",
"325 0 LINE",
"325 94 OFFCURVE",
"318 125 OFFCURVE",
"300 160 CURVE SMOOTH",
"274 210 OFFCURVE",
"256 266 OFFCURVE",
"266 314 CURVE SMOOTH",
"276 362 OFFCURVE",
"318 441 OFFCURVE",
"330 472 CURVE",
"308 510 OFFCURVE",
"200 581 OFFCURVE",
"146 611 CURVE",
"146 532 LINE SMOOTH",
"146 469 OFFCURVE",
"133 418 OFFCURVE",
"121 360 CURVE SMOOTH",
"109 302 OFFCURVE",
"149 258 OFFCURVE",
"149 222 CURVE SMOOTH",
"149 186 OFFCURVE",
"147 58 OFFCURVE",
"144 0 CURVE",
"65 0 LINE",
"68 58 OFFCURVE",
"70 186 OFFCURVE",
"70 222 CURVE SMOOTH",
"70 258 OFFCURVE",
"30 302 OFFCURVE",
"42 360 CURVE SMOOTH",
"54 418 OFFCURVE",
"67 469 OFFCURVE",
"67 532 CURVE SMOOTH",
"67 700 LINE",
"139 700 LINE",
"162 700 OFFCURVE",
"305 628 OFFCURVE",
"335 579 CURVE",
"332 614 OFFCURVE",
"326 641 OFFCURVE",
"325 700 CURVE",
"404 700 LINE",
"405 641 OFFCURVE",
"411 614 OFFCURVE",
"414 579 CURVE"
);
}
);
width = 454;
}
);
unicode = 004E;
},
{
glyphname = O;
lastChange = "2017-12-21 18:38:53 +0000";
layers = (
{
layerId = "8163A9A7-FEB5-4584-B00B-7D9977804228";
paths = (
{
closed = 1;
nodes = (
"135 533 OFFCURVE",
"209 608 OFFCURVE",
"287 608 CURVE SMOOTH",
"391 608 OFFCURVE",
"378 557 OFFCURVE",
"455 533 CURVE SMOOTH",
"533 510 OFFCURVE",
"441 412 OFFCURVE",
"448 336 CURVE SMOOTH",
"456 259 OFFCURVE",
"427 231 OFFCURVE",
"391 159 CURVE SMOOTH",
"356 88 OFFCURVE",
"204 72 OFFCURVE",
"156 137 CURVE",
"81 253 OFFCURVE",
"121 341 OFFCURVE",
"129 425 CURVE SMOOTH",
"130 432 OFFCURVE",
"130 440 OFFCURVE",
"130 448 CURVE"
);
},
{
closed = 1;
nodes = (
"61 476 OFFCURVE",
"61 465 OFFCURVE",
"60 455 CURVE SMOOTH",
"49 336 OFFCURVE",
"-7 212 OFFCURVE",
"98 49 CURVE",
"165 -42 OFFCURVE",
"379 -20 OFFCURVE",
"429 81 CURVE SMOOTH",
"479 182 OFFCURVE",
"520 221 OFFCURVE",
"509 329 CURVE SMOOTH",
"498 437 OFFCURVE",
"628 574 OFFCURVE",
"519 607 CURVE SMOOTH",
"410 640 OFFCURVE",
"429 712 OFFCURVE",
"282 712 CURVE SMOOTH",
"173 712 OFFCURVE",
"68 607 OFFCURVE",
"61 487 CURVE"
);
}
);
width = 598;
}
);
unicode = 004F;
},
{
glyphname = P;
lastChange = "2017-12-21 18:39:02 +0000";
layers = (
{
layerId = "8163A9A7-FEB5-4584-B00B-7D9977804228";
paths = (
{
closed = 1;
nodes = (
"112 324 OFFCURVE",
"115 373 OFFCURVE",
"140 386 CURVE SMOOTH",
"195 414 OFFCURVE",
"314 469 OFFCURVE",
"336 508 CURVE SMOOTH",
"360 550 OFFCURVE",
"351 566 OFFCURVE",
"287 622 CURVE SMOOTH",
"235 668 OFFCURVE",
"203 695 OFFCURVE",
"173 704 CURVE SMOOTH",
"145 712 OFFCURVE",
"125 710 OFFCURVE",
"99 702 CURVE SMOOTH",
"74 694 OFFCURVE",
"49 670 OFFCURVE",
"44 630 CURVE",
"40 386 LINE SMOOTH",
"38 274 OFFCURVE",
"67 216 OFFCURVE",
"88 170 CURVE SMOOTH",
"120 98 OFFCURVE",
"155 33 OFFCURVE",
"177 0 CURVE",
"256 0 LINE",
"220 77 OFFCURVE",
"146 244 OFFCURVE",
"124 296 CURVE SMOOTH"
);
},
{
closed = 1;
nodes = (
"115 484 OFFCURVE",
"116 551 OFFCURVE",
"115 594 CURVE SMOOTH",
"114 630 OFFCURVE",
"163 644 OFFCURVE",
"181 622 CURVE",
"223 576 LINE",
"241 551 OFFCURVE",
"260 539 OFFCURVE",
"215 511 CURVE SMOOTH",
"115 448 LINE"
);
}
);
width = 388;
},
{
associatedMasterId = "8163A9A7-FEB5-4584-B00B-7D9977804228";
layerId = "90BB86C6-74E4-4154-AA15-485812D94B02";
name = "Nov 25 17, 10:55";
paths = (
{
closed = 1;
nodes = (
"174 0 LINE",
"95 0 LINE",
"95 399 LINE",
"94 418 OFFCURVE",
"111 445 OFFCURVE",
"125 466 CURVE",
"173 528 LINE",
"190 548 OFFCURVE",
"201 556 OFFCURVE",
"195 583 CURVE SMOOTH",
"191 602 OFFCURVE",
"130 672 OFFCURVE",
"105 700 CURVE",
"184 700 LINE",
"209 672 OFFCURVE",
"270 602 OFFCURVE",
"274 583 CURVE SMOOTH",
"278 565 OFFCURVE",
"278 564 OFFCURVE",
"270 553 CURVE",
"252 528 OFFCURVE",
"303 407 OFFCURVE",
"311 369 CURVE SMOOTH",
"317 341 OFFCURVE",
"303 322 OFFCURVE",
"288 322 CURVE",
"270 322 OFFCURVE",
"213 370 OFFCURVE",
"213 371 CURVE",
"174 399 LINE"
);
},
{
closed = 1;
nodes = (
"195 461 LINE",
"246 415 LINE",
"225 493 LINE",
"210 477 LINE"
);
}
);
width = 378;
}
);
unicode = 0050;
},
{
glyphname = Q;
lastChange = "2017-12-21 18:39:14 +0000";
layers = (
{
layerId = "8163A9A7-FEB5-4584-B00B-7D9977804228";
paths = (
{
closed = 1;
nodes = (
"165 -42 OFFCURVE",
"379 -20 OFFCURVE",
"429 81 CURVE SMOOTH",
"479 182 OFFCURVE",
"520 221 OFFCURVE",
"509 329 CURVE SMOOTH",
"498 437 OFFCURVE",
"628 574 OFFCURVE",
"519 607 CURVE SMOOTH",
"410 640 OFFCURVE",
"429 712 OFFCURVE",
"282 712 CURVE SMOOTH",
"173 712 OFFCURVE",
"68 607 OFFCURVE",
"61 487 CURVE",
"61 476 OFFCURVE",
"61 465 OFFCURVE",
"60 455 CURVE SMOOTH",
"49 336 OFFCURVE",
"-7 212 OFFCURVE",
"98 49 CURVE"
);
},
{
closed = 1;
nodes = (
"214 -200 LINE",
"214 -96 LINE",
"212 -20 OFFCURVE",
"210 18 OFFCURVE",
"172 61 CURVE",
"93 61 LINE",
"131 18 OFFCURVE",
"133 -20 OFFCURVE",
"135 -96 CURVE",
"135 -200 LINE"
);
},
{
closed = 1;
nodes = (
"81 253 OFFCURVE",
"121 341 OFFCURVE",
"129 425 CURVE SMOOTH",
"130 432 OFFCURVE",
"130 440 OFFCURVE",
"130 448 CURVE",
"135 533 OFFCURVE",
"209 608 OFFCURVE",
"287 608 CURVE SMOOTH",
"391 608 OFFCURVE",
"378 557 OFFCURVE",
"455 533 CURVE SMOOTH",
"533 510 OFFCURVE",
"441 412 OFFCURVE",
"448 336 CURVE SMOOTH",
"456 259 OFFCURVE",
"427 231 OFFCURVE",
"391 159 CURVE SMOOTH",
"356 88 OFFCURVE",
"204 72 OFFCURVE",
"156 137 CURVE"
);
}
);
width = 598;
}
);
unicode = 0051;
},
{
glyphname = R;
lastChange = "2017-12-21 18:39:24 +0000";
layers = (
{
layerId = "8163A9A7-FEB5-4584-B00B-7D9977804228";
paths = (
{
closed = 1;
nodes = (
"173 155 OFFCURVE",
"234 235 OFFCURVE",
"272 188 CURVE",
"364 38 LINE",
"439 82 LINE",
"348 232 LINE",
"309 279 OFFCURVE",
"206 208 OFFCURVE",
"206 293 CURVE SMOOTH",
"206 316 OFFCURVE",
"232 320 OFFCURVE",
"261 320 CURVE",
"291 319 OFFCURVE",
"385 327 OFFCURVE",
"406 374 CURVE SMOOTH",
"418 401 OFFCURVE",
"413 430 OFFCURVE",
"391 460 CURVE",
"255 655 LINE SMOOTH",
"203 730 OFFCURVE",
"138 721 OFFCURVE",
"81 672 CURVE SMOOTH",
"51 645 OFFCURVE",
"40 638 OFFCURVE",
"40 600 CURVE",
"40 269 LINE",
"40 201 OFFCURVE",
"123 145 OFFCURVE",
"123 92 CURVE SMOOTH",
"123 45 OFFCURVE",
"119 29 OFFCURVE",
"118 -2 CURVE",
"205 -2 LINE",
"206 29 OFFCURVE",
"209 45 OFFCURVE",
"209 92 CURVE SMOOTH",
"209 145 OFFCURVE",
"125 201 OFFCURVE",
"126 269 CURVE SMOOTH",
"129 536 LINE SMOOTH",
"130 559 OFFCURVE",
"128 587 OFFCURVE",
"138 601 CURVE SMOOTH",
"153 623 OFFCURVE",
"178 624 OFFCURVE",
"195 603 CURVE",
"277 486 LINE SMOOTH",
"298 456 OFFCURVE",
"344 383 OFFCURVE",
"217 388 CURVE SMOOTH",
"162 390 OFFCURVE",
"140 359 OFFCURVE",
"153 279 CURVE SMOOTH"
);
}
);
width = 474;
},
{
associatedMasterId = "8163A9A7-FEB5-4584-B00B-7D9977804228";
backgroundImage = {
crop = "{{0, 0}, {257, 169}}";
imagePath = "../Desktop/Capture d’écran 2017-11-14 à 12.15.16.png";
locked = "1";
transform = "{0, 4, -4, 0, 596, -15}";
};
layerId = "235B255C-8C13-46A0-9C73-65ED52D02AF8";
name = "Nov 25 17, 17:35";
paths = (
{
closed = 1;
nodes = (
"-125 658 OFFCURVE",
"-115 509 OFFCURVE",
"-142 459 CURVE SMOOTH",
"-159 428 OFFCURVE",
"-196 400 OFFCURVE",
"-213 378 CURVE SMOOTH",
"-249 332 OFFCURVE",
"-207 302 OFFCURVE",
"-169 259 CURVE SMOOTH",
"-131 216 OFFCURVE",
"-129 178 OFFCURVE",
"-127 102 CURVE",
"-127 -2 LINE",
"-206 -2 LINE",
"-206 102 LINE",
"-208 178 OFFCURVE",
"-210 216 OFFCURVE",
"-248 259 CURVE SMOOTH",
"-286 302 OFFCURVE",
"-328 332 OFFCURVE",
"-292 378 CURVE SMOOTH",
"-275 400 OFFCURVE",
"-238 428 OFFCURVE",
"-221 459 CURVE SMOOTH",
"-194 509 OFFCURVE",
"-204 658 OFFCURVE",
"-203 698 CURVE",
"-124 698 LINE"
);
},
{
closed = 1;
nodes = (
"414 352 OFFCURVE",
"389 358 OFFCURVE",
"362 357 CURVE SMOOTH",
"245 352 OFFCURVE",
"287 420 OFFCURVE",
"307 447 CURVE SMOOTH",
"382 554 LINE",
"397 573 OFFCURVE",
"421 572 OFFCURVE",
"434 552 CURVE SMOOTH",
"443 539 OFFCURVE",
"442 514 OFFCURVE",
"442 493 CURVE SMOOTH",
"445 248 LINE SMOOTH",
"446 186 OFFCURVE",
"369 135 OFFCURVE",
"369 86 CURVE SMOOTH",
"369 43 OFFCURVE",
"372 29 OFFCURVE",
"373 0 CURVE",
"452 0 LINE",
"451 29 OFFCURVE",
"448 43 OFFCURVE",
"448 86 CURVE SMOOTH",
"448 135 OFFCURVE",
"524 186 OFFCURVE",
"524 248 CURVE",
"524 551 LINE",
"524 586 OFFCURVE",
"514 593 OFFCURVE",
"486 617 CURVE SMOOTH",
"434 662 OFFCURVE",
"375 670 OFFCURVE",
"327 602 CURVE SMOOTH",
"202 423 LINE",
"182 396 OFFCURVE",
"178 369 OFFCURVE",
"189 344 CURVE SMOOTH",
"208 301 OFFCURVE",
"294 294 OFFCURVE",
"321 295 CURVE",
"348 295 OFFCURVE",
"372 291 OFFCURVE",
"372 270 CURVE SMOOTH",
"373 192 OFFCURVE",
"277 257 OFFCURVE",
"242 214 CURVE",
"158 77 LINE",
"227 37 LINE",
"311 174 LINE",
"346 217 OFFCURVE",
"414 152 OFFCURVE",
"414 230 CURVE SMOOTH",
"414 299 LINE"
);
}
);
width = 600;
}
);
unicode = 0052;
},
{
glyphname = S;
lastChange = "2017-12-21 18:39:30 +0000";
layers = (
{
layerId = "8163A9A7-FEB5-4584-B00B-7D9977804228";
paths = (
{
closed = 1;
nodes = (
"242 561 OFFCURVE",
"271 412 OFFCURVE",
"329 291 CURVE SMOOTH",
"369 207 OFFCURVE",
"385 132 OFFCURVE",
"389 121 CURVE SMOOTH",
"424 26 OFFCURVE",
"366 -45 OFFCURVE",
"305 -6 CURVE",
"35 157 LINE",
"74 228 LINE",
"99 213 OFFCURVE",
"263 114 OFFCURVE",
"287 99 CURVE SMOOTH",
"303 89 OFFCURVE",
"314 100 OFFCURVE",
"307 115 CURVE SMOOTH",
"303 125 OFFCURVE",
"284 195 OFFCURVE",
"242 280 CURVE SMOOTH",
"171 425 OFFCURVE",
"125 623 OFFCURVE",
"155 678 CURVE SMOOTH",
"171 707 OFFCURVE",
"196 730 OFFCURVE",
"259 713 CURVE SMOOTH",
"304 701 OFFCURVE",
"331 676 OFFCURVE",
"377 638 CURVE",
"455 570 LINE",
"404 510 LINE",
"267 629 LINE",
"249 642 OFFCURVE",
"242 624 OFFCURVE",
"242 615 CURVE"
);
}
);
width = 490;
}
);
unicode = 0053;
},
{
glyphname = T;
lastChange = "2017-12-21 18:34:23 +0000";
layers = (
{
layerId = "8163A9A7-FEB5-4584-B00B-7D9977804228";
paths = (
{
closed = 1;
nodes = (
"375 497 OFFCURVE",
"423 493 OFFCURVE",
"541 529 CURVE",
"504 595 LINE",
"457 568 OFFCURVE",
"321 543 OFFCURVE",
"321 544 CURVE",
"322 608 OFFCURVE",
"323 680 OFFCURVE",
"323 700 CURVE",
"244 700 LINE",
"244 681 OFFCURVE",
"247 614 OFFCURVE",
"247 545 CURVE",
"174 544 OFFCURVE",
"107 504 OFFCURVE",
"58 483 CURVE",
"97 415 LINE",
"117 416 OFFCURVE",
"152 482 OFFCURVE",
"246 482 CURVE",
"245 448 OFFCURVE",
"242 417 OFFCURVE",
"237 401 CURVE SMOOTH",
"220 343 OFFCURVE",
"192 296 OFFCURVE",
"133 240 CURVE SMOOTH",
"74 184 OFFCURVE",
"40 80 OFFCURVE",
"35 0 CURVE",
"114 0 LINE",
"114 49 OFFCURVE",
"130 116 OFFCURVE",
"145 140 CURVE SMOOTH",
"182 199 OFFCURVE",
"310 299 OFFCURVE",
"318 442 CURVE SMOOTH",
"319 448 OFFCURVE",
"319 462 OFFCURVE",
"320 481 CURVE"
);
}
);
width = 561;
}
);
unicode = 0054;
},
{
glyphname = U;
lastChange = "2017-11-18 13:14:39 +0000";
layers = (
{
layerId = "8163A9A7-FEB5-4584-B00B-7D9977804228";
paths = (
{
closed = 1;
nodes = (
"355 187 OFFCURVE",
"383 273 OFFCURVE",
"383 385 CURVE SMOOTH",
"383 415 OFFCURVE",
"384 538 OFFCURVE",
"384 700 CURVE",
"463 700 LINE",
"463 538 OFFCURVE",
"463 415 OFFCURVE",
"463 385 CURVE SMOOTH",
"463 273 OFFCURVE",
"441 187 OFFCURVE",
"432 142 CURVE SMOOTH",
"425 108 OFFCURVE",
"401 37 OFFCURVE",
"355 0 CURVE SMOOTH",
"335 -16 OFFCURVE",
"292 -18 OFFCURVE",
"257 4 CURVE",
"105 82 LINE",
"71 99 OFFCURVE",
"21 111 OFFCURVE",
"39 187 CURVE SMOOTH",
"57 263 OFFCURVE",
"85 363 OFFCURVE",
"105 451 CURVE SMOOTH",
"125 539 OFFCURVE",
"139 605 OFFCURVE",
"156 700 CURVE",
"235 700 LINE",
"218 605 OFFCURVE",
"207 538 OFFCURVE",
"184 451 CURVE SMOOTH",
"171 402 OFFCURVE",
"148 314 OFFCURVE",
"139 273 CURVE SMOOTH",
"129 227 OFFCURVE",
"113 195 OFFCURVE",
"160 167 CURVE SMOOTH",
"204 141 OFFCURVE",
"319 71 OFFCURVE",
"341 142 CURVE"
);
}
);
width = 498;
}
);
unicode = 0055;
},
{
glyphname = V;
lastChange = "2017-12-21 18:35:05 +0000";
layers = (
{
layerId = "8163A9A7-FEB5-4584-B00B-7D9977804228";
paths = (
{
closed = 1;
nodes = (
"311 0 LINE",
"295 25 OFFCURVE",
"57 330 OFFCURVE",
"46 373 CURVE SMOOTH",
"40 398 OFFCURVE",
"74 423 OFFCURVE",
"82 453 CURVE SMOOTH",
"90 483 OFFCURVE",
"62 571 OFFCURVE",
"62 653 CURVE",
"62 700 LINE",
"141 700 LINE",
"141 653 LINE",
"141 568 OFFCURVE",
"168 483 OFFCURVE",
"160 453 CURVE SMOOTH",
"152 423 OFFCURVE",
"116 398 OFFCURVE",
"124 373 CURVE SMOOTH",
"137 331 OFFCURVE",
"269 195 OFFCURVE",
"280 195 CURVE",
"225 309 OFFCURVE",
"228 336 OFFCURVE",
"251 399 CURVE SMOOTH",
"272 457 OFFCURVE",
"267 584 OFFCURVE",
"268 653 CURVE",
"268 700 LINE",
"347 700 LINE",
"347 653 LINE SMOOTH",
"347 606 OFFCURVE",
"348 500 OFFCURVE",
"348 473 CURVE SMOOTH",
"348 395 OFFCURVE",
"295 385 OFFCURVE",
"315 339 CURVE SMOOTH",
"335 293 OFFCURVE",
"378 195 OFFCURVE",
"392 0 CURVE"
);
}
);
width = 437;
},
{
associatedMasterId = "8163A9A7-FEB5-4584-B00B-7D9977804228";
backgroundImage = {
crop = "{{0, 0}, {237, 455}}";
imagePath = ../Desktop/V.png;
locked = "1";
transform = "{-2.5, 0, 0, -2.5, 684, 804}";
};
layerId = "5A0F0CF8-5D8C-40B0-9137-5EC2E1A1A9A2";
name = "Nov 25 17, 12:40";
paths = (
{
closed = 1;
nodes = (
"-172 660 OFFCURVE",
"-162 511 OFFCURVE",
"-189 461 CURVE SMOOTH",
"-206 430 OFFCURVE",
"-243 402 OFFCURVE",
"-260 380 CURVE SMOOTH",
"-296 334 OFFCURVE",
"-254 304 OFFCURVE",
"-216 261 CURVE SMOOTH",
"-178 218 OFFCURVE",
"-176 180 OFFCURVE",
"-174 104 CURVE",
"-174 0 LINE",
"-253 0 LINE",
"-253 104 LINE",
"-255 180 OFFCURVE",
"-257 218 OFFCURVE",
"-295 261 CURVE SMOOTH",
"-333 304 OFFCURVE",
"-375 334 OFFCURVE",
"-339 380 CURVE SMOOTH",
"-322 402 OFFCURVE",
"-285 430 OFFCURVE",
"-268 461 CURVE SMOOTH",
"-241 511 OFFCURVE",
"-251 660 OFFCURVE",
"-250 700 CURVE",
"-171 700 LINE"
);
},
{
closed = 0;
nodes = (
"405 653 LINE",
"405 700 LINE",
"484 700 LINE",
"484 653 LINE"
);
},
{
closed = 0;
nodes = (
"417 195 LINE SMOOTH",
"398 220 OFFCURVE",
"274 331 OFFCURVE",
"261 373 CURVE SMOOTH",
"253 398 OFFCURVE",
"289 423 OFFCURVE",
"297 453 CURVE SMOOTH",
"305 483 OFFCURVE",
"278 568 OFFCURVE",
"278 653 CURVE",
"278 700 LINE",
"199 700 LINE",
"199 653 LINE",
"199 571 OFFCURVE",
"227 483 OFFCURVE",
"219 453 CURVE SMOOTH",
"211 423 OFFCURVE",
"175 398 OFFCURVE",
"183 373 CURVE SMOOTH",
"196 331 OFFCURVE",
"431 25 OFFCURVE",
"450 0 CURVE",
"529 0 LINE"
);
}
);
width = 600;
}
);
unicode = 0056;
},
{
glyphname = W;
lastChange = "2017-12-21 18:34:52 +0000";
layers = (
{
layerId = "8163A9A7-FEB5-4584-B00B-7D9977804228";
paths = (
{
closed = 1;
nodes = (
"140 82 OFFCURVE",
"129 96 OFFCURVE",
"125 215 CURVE SMOOTH",
"123 280 OFFCURVE",
"131 316 OFFCURVE",
"141 345 CURVE SMOOTH",
"151 374 OFFCURVE",
"137 430 OFFCURVE",
"134 459 CURVE SMOOTH",
"131 488 OFFCURVE",
"141 531 OFFCURVE",
"149 570 CURVE SMOOTH",
"177 700 LINE",
"98 700 LINE",
"69 570 LINE SMOOTH",
"60 531 OFFCURVE",
"51 488 OFFCURVE",
"54 459 CURVE SMOOTH",
"57 430 OFFCURVE",
"71 374 OFFCURVE",
"61 345 CURVE SMOOTH",
"51 316 OFFCURVE",
"43 280 OFFCURVE",
"45 215 CURVE SMOOTH",
"49 96 OFFCURVE",
"61 82 OFFCURVE",
"90 0 CURVE",
"169 0 LINE"
);
},
{
closed = 1;
nodes = (
"242 151 OFFCURVE",
"241 148 OFFCURVE",
"227 171 CURVE",
"185 115 LINE SMOOTH",
"161 83 OFFCURVE",
"158 79 OFFCURVE",
"144 61 CURVE",
"169 0 LINE",
"183 18 OFFCURVE",
"193 33 OFFCURVE",
"217 65 CURVE SMOOTH",
"259 121 LINE"
);
},
{
closed = 1;
nodes = (
"335 90 LINE",
"414 90 LINE",
"355 211 OFFCURVE",
"399 118 OFFCURVE",
"362 301 CURVE SMOOTH",
"353 345 OFFCURVE",
"368 437 OFFCURVE",
"386 497 CURVE SMOOTH",
"404 557 OFFCURVE",
"426 648 OFFCURVE",
"439 700 CURVE",
"364 700 LINE",
"351 648 OFFCURVE",
"329 557 OFFCURVE",
"311 497 CURVE SMOOTH",
"293 437 OFFCURVE",
"278 345 OFFCURVE",
"287 301 CURVE SMOOTH",
"310 186 LINE",
"287 169 OFFCURVE",
"270 234 OFFCURVE",
"259 271 CURVE",
"231 357 LINE",
"192 328 LINE",
"241 195 LINE",
"273 127 OFFCURVE",
"313 103 OFFCURVE",
"335 90 CURVE"
);
}
);
width = 484;
}
);
unicode = 0057;
},
{
glyphname = X;
lastChange = "2017-12-21 18:39:49 +0000";
layers = (
{
layerId = "8163A9A7-FEB5-4584-B00B-7D9977804228";
paths = (
{
closed = 1;
nodes = (
"321 -2 LINE",
"306 21 OFFCURVE",
"175 164 OFFCURVE",
"140 218 CURVE SMOOTH",
"105 271 OFFCURVE",
"76 305 OFFCURVE",
"73 384 CURVE SMOOTH",
"70 470 OFFCURVE",
"74 598 OFFCURVE",
"70 681 CURVE",
"147 710 LINE",
"151 626 OFFCURVE",
"148 498 OFFCURVE",
"150 412 CURVE SMOOTH",
"152 327 OFFCURVE",
"183 300 OFFCURVE",
"218 247 CURVE SMOOTH",
"253 194 OFFCURVE",
"383 49 OFFCURVE",
"399 26 CURVE"
);
},
{
closed = 1;
nodes = (
"40 58 LINE",
"55 211 OFFCURVE",
"102 151 OFFCURVE",
"199 355 CURVE SMOOTH",
"227 414 OFFCURVE",
"149 463 OFFCURVE",
"178 544 CURVE",
"244 694 LINE",
"321 665 LINE",
"255 516 LINE",
"226 435 OFFCURVE",
"304 386 OFFCURVE",
"276 327 CURVE SMOOTH",
"179 123 OFFCURVE",
"117 159 OFFCURVE",
"103 6 CURVE"
);
}
);
width = 439;
},
{
associatedMasterId = "8163A9A7-FEB5-4584-B00B-7D9977804228";
backgroundImage = {
crop = "{{0, 0}, {150, 271}}";
imagePath = "../Desktop/I - X.png";
locked = "1";
transform = "{7.5, 0, 0, 7.5, -172, -921}";
};
layerId = "E87EC45F-3776-4272-8816-FEDFEEC64796";
name = "Nov 25 17, 17:46";
paths = (
{
closed = 1;
nodes = (
"293 0 LINE",
"287 26 OFFCURVE",
"216 199 OFFCURVE",
"202 259 CURVE SMOOTH",
"188 319 OFFCURVE",
"172 358 OFFCURVE",
"196 431 CURVE SMOOTH",
"222 509 OFFCURVE",
"267 624 OFFCURVE",
"291 700 CURVE",
"370 700 LINE",
"346 624 OFFCURVE",
"301 509 OFFCURVE",
"275 431 CURVE SMOOTH",
"249 353 OFFCURVE",
"267 319 OFFCURVE",
"281 259 CURVE SMOOTH",
"295 199 OFFCURVE",
"366 26 OFFCURVE",
"372 0 CURVE"
);
},
{
closed = 1;
nodes = (
"59 148 LINE",
"122 281 OFFCURVE",
"147 210 OFFCURVE",
"300 363 CURVE SMOOTH",
"346 407 OFFCURVE",
"291 477 OFFCURVE",
"344 541 CURVE",
"452 654 LINE",
"512 603 LINE",
"404 490 LINE",
"351 426 OFFCURVE",
"405 357 OFFCURVE",
"360 312 CURVE SMOOTH",
"207 159 OFFCURVE",
"161 213 OFFCURVE",
"98 80 CURVE"
);
}
);
width = 600;
}
);
unicode = 0058;
},
{
glyphname = Y;
lastChange = "2017-12-21 18:39:56 +0000";
layers = (
{
layerId = "8163A9A7-FEB5-4584-B00B-7D9977804228";
paths = (
{
closed = 1;
nodes = (
"190 370 OFFCURVE",
"147 429 OFFCURVE",
"144 504 CURVE SMOOTH",
"140 616 OFFCURVE",
"119 700 OFFCURVE",
"119 700 CURVE",
"40 700 LINE",
"40 700 OFFCURVE",
"61 616 OFFCURVE",
"65 504 CURVE SMOOTH",
"68 429 OFFCURVE",
"113 371 OFFCURVE",
"128 345 CURVE SMOOTH",
"146 314 OFFCURVE",
"170 270 OFFCURVE",
"153 239 CURVE SMOOTH",
"126 189 OFFCURVE",
"136 40 OFFCURVE",
"135 0 CURVE",
"214 0 LINE",
"215 40 OFFCURVE",
"204 189 OFFCURVE",
"232 239 CURVE SMOOTH",
"256 282 OFFCURVE",
"284 289 OFFCURVE",
"284 320 CURVE",
"284 371 OFFCURVE",
"278 405 OFFCURVE",
"298 474 CURVE SMOOTH",
"330 583 OFFCURVE",
"338 651 OFFCURVE",
"338 700 CURVE",
"259 700 LINE",
"259 651 OFFCURVE",
"251 583 OFFCURVE",
"219 474 CURVE SMOOTH",
"202 416 OFFCURVE",
"204 383 OFFCURVE",
"205 344 CURVE"
);
}
);
width = 378;
}
);
unicode = 0059;
},
{
glyphname = Z;
lastChange = "2017-12-21 18:40:07 +0000";
layers = (
{
layerId = "8163A9A7-FEB5-4584-B00B-7D9977804228";
paths = (
{
closed = 1;
nodes = (
"299 -30 OFFCURVE",
"247 26 OFFCURVE",
"214 66 CURVE SMOOTH",
"181 106 OFFCURVE",
"179 131 OFFCURVE",
"139 151 CURVE SMOOTH",
"99 171 OFFCURVE",
"90 136 OFFCURVE",
"53 169 CURVE SMOOTH",
"24 195 OFFCURVE",
"31 249 OFFCURVE",
"71 292 CURVE",
"95 314 OFFCURVE",
"181 411 OFFCURVE",
"209 438 CURVE",
"224 451 OFFCURVE",
"238 462 OFFCURVE",
"242 476 CURVE SMOOTH",
"246 491 OFFCURVE",
"231 495 OFFCURVE",
"190 514 CURVE SMOOTH",
"169 524 OFFCURVE",
"136 561 OFFCURVE",
"120 579 CURVE SMOOTH",
"95 607 OFFCURVE",
"55 647 OFFCURVE",
"55 687 CURVE",
"113 750 LINE",
"134 672 OFFCURVE",
"246 595 OFFCURVE",
"267 568 CURVE SMOOTH",
"284 546 OFFCURVE",
"320 531 OFFCURVE",
"324 507 CURVE SMOOTH",
"328 483 OFFCURVE",
"327 465 OFFCURVE",
"312 441 CURVE",
"260 377 LINE",
"236 346 OFFCURVE",
"169 267 OFFCURVE",
"178 236 CURVE SMOOTH",
"183 219 OFFCURVE",
"192 228 OFFCURVE",
"214 215 CURVE SMOOTH",
"236 202 OFFCURVE",
"267 159 OFFCURVE",
"285 130 CURVE SMOOTH",
"303 101 OFFCURVE",
"342 37 OFFCURVE",
"368 20 CURVE",
"314 -45 LINE"
);
}
);
width = 403;
}
);
unicode = 005A;
},
